<svg width="20" xmlns="http://www.w3.org/2000/svg" height="20" id="screenshot-6296315c-e4ba-803c-8007-81086d2ad5fa" viewBox="0 0 20 20" xmlns:xlink="http://www.w3.org/1999/xlink" fill="none" version="1.1"><g id="shape-6296315c-e4ba-803c-8007-81086d2ad5fa"><g class="frame-container-wrapper"><g class="frame-container-blur"><g class="frame-container-shadows"><g fill="none"><g class="fills" id="fills-6296315c-e4ba-803c-8007-81086d2ad5fa"><rect rx="0" ry="0" x="0" y="0" width="20" height="20" transform="matrix(1.000000, 0.000000, 0.000000, 1.000000, 0.000000, 0.000000)" class="frame-background"/></g><g class="frame-children"><g id="shape-6296315c-e4ba-803c-8007-81086d2ad5fc" rx="0" ry="0" style="fill: rgb(0, 0, 0);"><g id="shape-6296315c-e4ba-803c-8007-81086d2ad5fd" style="display: none;"><g class="fills" id="fills-6296315c-e4ba-803c-8007-81086d2ad5fd"><rect width="20" height="20" x="0" transform="matrix(1.000000, 0.000000, 0.000000, 1.000000, 0.000000, 0.000000)" style="fill: none;" ry="0" fill="none" rx="0" y="0"/></g></g><g id="shape-6296315c-e4ba-803c-8007-81086d2ad5fe"><g class="fills" id="fills-6296315c-e4ba-803c-8007-81086d2ad5fe"><path d="M10,1.6638281345367432C5.416015625,1.6638281345367432,1.666015625,5.413827896118164,1.666015625,9.999765396118164C1.666015625,14.585702896118164,5.416015625,18.335702896118164,10,18.335702896118164C14.583984375,18.335702896118164,18.333984375,14.585702896118164,18.333984375,9.999765396118164C18.333984375,5.413827896118164,14.583984375,1.6638281345367432,10,1.6638281345367432M8.333984375,14.163827896118164L4.166015625,9.999765396118164L5.341796875,8.827890396118164L8.333984375,11.812265396118164L14.658203125,5.484140396118164L15.833984375,6.663827896118164L8.333984375,14.163827896118164Z" style="fill: #3b7dd6; fill-opacity: 1;"/></g></g></g></g></g></g></g></g></g></svg>