<svg width="40" xmlns="http://www.w3.org/2000/svg" height="40" id="screenshot-a58aa18c-f403-80e8-8007-8885d5588a98" viewBox="0 0 40 40" xmlns:xlink="http://www.w3.org/1999/xlink" fill="none" version="1.1"><g id="shape-a58aa18c-f403-80e8-8007-8885d5588a98"><g class="frame-container-wrapper"><g class="frame-container-blur"><g class="frame-container-shadows"><g fill="none"><g class="fills" id="fills-a58aa18c-f403-80e8-8007-8885d5588a98"><rect rx="0" ry="0" x="0" y="0" width="40" height="40" transform="matrix(1.000000, 0.000000, 0.000000, 1.000000, 0.000000, 0.000000)" class="frame-background"/></g><g class="frame-children"><g id="shape-a58aa18c-f403-80e8-8007-8885d5588a99" rx="0" ry="0" style="fill: rgb(0, 0, 0);"><g id="shape-a58aa18c-f403-80e8-8007-8885d5588a9a" style="display: none;"><g class="fills" id="fills-a58aa18c-f403-80e8-8007-8885d5588a9a"><rect width="40" height="40" x="0" transform="matrix(1.000000, 0.000000, 0.000000, 1.000000, 0.000000, 0.000000)" style="fill: none;" ry="0" fill="none" rx="0" y="0"/></g></g><g id="shape-a58aa18c-f403-80e8-8007-8885d558ee9f"><g class="fills" id="fills-a58aa18c-f403-80e8-8007-8885d558ee9f"><path d="M36.666015625,10C36.666015625,8.1640625,35.166015625,6.666015625,33.333984375,6.666015625L6.666015625,6.666015625C4.833984375,6.666015625,3.333984375,8.1640625,3.333984375,10L3.333984375,30C3.333984375,31.8359375,4.833984375,33.333984375,6.666015625,33.333984375L33.333984375,33.333984375C35.166015625,33.333984375,36.666015625,31.8359375,36.666015625,30L36.666015625,10M33.333984375,10L20,18.333984375L6.666015625,10L33.333984375,10M33.333984375,30L6.666015625,30L6.666015625,13.333984375L20,21.666015625L33.333984375,13.333984375L33.333984375,30Z" style="fill: #fafaf9; fill-opacity: 1;"/></g></g></g></g></g></g></g></g></g></svg>