<svg width="40" xmlns="http://www.w3.org/2000/svg" height="40" id="screenshot-a58aa18c-f403-80e8-8007-8885f5871768" viewBox="0 0 40 40" xmlns:xlink="http://www.w3.org/1999/xlink" fill="none" version="1.1"><g id="shape-a58aa18c-f403-80e8-8007-8885f5871768"><g class="frame-container-wrapper"><g class="frame-container-blur"><g class="frame-container-shadows"><g fill="none"><g class="fills" id="fills-a58aa18c-f403-80e8-8007-8885f5871768"><rect rx="0" ry="0" x="0" y="0" width="40" height="40" transform="matrix(1.000000, 0.000000, 0.000000, 1.000000, 0.000000, 0.000000)" class="frame-background"/></g><g class="frame-children"><g id="shape-a58aa18c-f403-80e8-8007-8885f5871769" rx="0" ry="0" style="fill: rgb(0, 0, 0);"><g id="shape-a58aa18c-f403-80e8-8007-8885f587176a" style="display: none;"><g class="fills" id="fills-a58aa18c-f403-80e8-8007-8885f587176a"><rect width="40" height="40" x="0" transform="matrix(1.000000, 0.000000, 0.000000, 1.000000, 0.000000, 0.000000)" style="fill: none;" ry="0" fill="none" rx="0" y="0"/></g></g><g id="shape-a58aa18c-f403-80e8-8007-8885f5877319"><g class="fills" id="fills-a58aa18c-f403-80e8-8007-8885f5877319"><path d="M31.666015625,5C33.505859375,5,35,6.490234375,35,8.333984375L35,31.666015625C35,33.505859375,33.505859375,35,31.666015625,35L8.333984375,35C6.490234375,35,5,33.505859375,5,31.666015625L5,8.333984375C5,6.490234375,6.490234375,5,8.333984375,5L31.666015625,5M30.833984375,30.833984375L30.833984375,21.998046875C30.833984375,18.998046875,28.40234375,16.56640625,25.400390625,16.56640625C23.984375,16.56640625,22.333984375,17.431640625,21.533203125,18.734375L21.533203125,16.880859375L16.880859375,16.880859375L16.880859375,30.833984375L21.533203125,30.833984375L21.533203125,22.6171875C21.533203125,21.33203125,22.564453125,20.283203125,23.8515625,20.283203125C24.46875,20.283203125,25.0625,20.52734375,25.498046875,20.966796875C25.9375,21.40234375,26.181640625,21.99609375,26.181640625,22.6171875L26.181640625,30.833984375L30.833984375,30.833984375M11.46484375,14.263671875C12.2109375,14.263671875,12.919921875,13.970703125,13.447265625,13.447265625C13.970703125,12.919921875,14.267578125,12.20703125,14.267578125,11.46484375C14.267578125,9.916015625,13.017578125,8.6484375,11.46484375,8.6484375C9.912109375,8.6484375,8.6484375,9.908203125,8.6484375,11.46484375C8.6484375,13.013671875,9.916015625,14.263671875,11.46484375,14.263671875M13.783203125,30.833984375L13.783203125,16.880859375L9.166015625,16.880859375L9.166015625,30.833984375L13.783203125,30.833984375Z" style="fill: #fafaf9; fill-opacity: 1;"/></g></g></g></g></g></g></g></g></g></svg>