<svg width="40" xmlns="http://www.w3.org/2000/svg" height="40" id="screenshot-a58aa18c-f403-80e8-8007-8885e4bc83e2" viewBox="0 0 40 40" xmlns:xlink="http://www.w3.org/1999/xlink" fill="none" version="1.1"><g id="shape-a58aa18c-f403-80e8-8007-8885e4bc83e2"><g class="frame-container-wrapper"><g class="frame-container-blur"><g class="frame-container-shadows"><g fill="none"><g class="fills" id="fills-a58aa18c-f403-80e8-8007-8885e4bc83e2"><rect rx="0" ry="0" x="0" y="0" width="40" height="40" transform="matrix(1.000000, 0.000000, 0.000000, 1.000000, 0.000000, 0.000000)" class="frame-background"/></g><g class="frame-children"><g id="shape-a58aa18c-f403-80e8-8007-8885e4bc83e3" rx="0" ry="0" style="fill: rgb(0, 0, 0);"><g id="shape-a58aa18c-f403-80e8-8007-8885e4bc83e4" style="display: none;"><g class="fills" id="fills-a58aa18c-f403-80e8-8007-8885e4bc83e4"><rect width="40" height="40" x="0" transform="matrix(1.000000, 0.000000, 0.000000, 1.000000, 0.000000, 0.000000)" style="fill: none;" ry="0" fill="none" rx="0" y="0"/></g></g><g id="shape-a58aa18c-f403-80e8-8007-8885e4bcc29f"><g class="fills" id="fills-a58aa18c-f403-80e8-8007-8885e4bcc29f"><path d="M20,3.333984375C10.794921875,3.333984375,3.333984375,10.794921875,3.333984375,20C3.333984375,27.369140625,8.115234375,33.619140625,14.732421875,35.833984375C15.56640625,35.962890625,15.833984375,35.455078125,15.833984375,35C15.833984375,34.623046875,15.833984375,33.568359375,15.833984375,32.1875C11.21484375,33.177734375,10.23046875,29.947265625,10.23046875,29.947265625C9.466796875,28.021484375,8.3828125,27.5,8.3828125,27.5C6.865234375,26.470703125,8.5,26.498046875,8.5,26.498046875C10.166015625,26.615234375,11.048828125,28.216796875,11.048828125,28.216796875C12.5,30.755859375,14.947265625,30,15.8984375,29.595703125C16.048828125,28.515625,16.48046875,27.787109375,16.94921875,27.369140625C13.248046875,26.953125,9.365234375,25.521484375,9.365234375,19.166015625C9.365234375,17.318359375,10,15.833984375,11.080078125,14.6484375C10.9140625,14.232421875,10.33203125,12.5,11.25,10.248046875C11.25,10.248046875,12.650390625,9.8046875,15.833984375,11.953125C17.1484375,11.587890625,18.580078125,11.40625,20,11.40625C21.416015625,11.40625,22.84765625,11.587890625,24.166015625,11.953125C27.34765625,9.8046875,28.75,10.248046875,28.75,10.248046875C29.6640625,12.5,29.08203125,14.232421875,28.916015625,14.6484375C30,15.833984375,30.630859375,17.318359375,30.630859375,19.166015625C30.630859375,25.533203125,26.732421875,26.927734375,23.013671875,27.34375C23.6171875,27.865234375,24.166015625,28.880859375,24.166015625,30.4296875C24.166015625,32.669921875,24.166015625,34.466796875,24.166015625,35C24.166015625,35.455078125,24.4296875,35.990234375,25.283203125,35.833984375C31.8984375,33.59375,36.666015625,27.369140625,36.666015625,20C36.666015625,10.794921875,29.203125,3.333984375,20,3.333984375Z" style="fill: #fafaf9; fill-opacity: 1;"/></g></g></g></g></g></g></g></g></g></svg>