<svg width="40" xmlns="http://www.w3.org/2000/svg" height="40" id="screenshot-a58aa18c-f403-80e8-8007-888600ee0639" viewBox="0 0 40 40" xmlns:xlink="http://www.w3.org/1999/xlink" fill="none" version="1.1"><g id="shape-a58aa18c-f403-80e8-8007-888600ee0639"><g class="frame-container-wrapper"><g class="frame-container-blur"><g class="frame-container-shadows"><g fill="none"><g class="fills" id="fills-a58aa18c-f403-80e8-8007-888600ee0639"><rect rx="0" ry="0" x="0" y="0" width="40" height="40" transform="matrix(1.000000, 0.000000, 0.000000, 1.000000, 0.000000, 0.000000)" class="frame-background"/></g><g class="frame-children"><g id="shape-a58aa18c-f403-80e8-8007-888600ee063a" rx="0" ry="0" style="fill: rgb(0, 0, 0);"><g id="shape-a58aa18c-f403-80e8-8007-888600ee063b" style="display: none;"><g class="fills" id="fills-a58aa18c-f403-80e8-8007-888600ee063b"><rect width="40" height="40" x="0" transform="matrix(1.000000, 0.000000, 0.000000, 1.000000, 0.000000, 0.000000)" style="fill: none;" ry="0" fill="none" rx="0" y="0"/></g></g><g id="shape-a58aa18c-f403-80e8-8007-888600ee063c"><g class="fills" id="fills-a58aa18c-f403-80e8-8007-888600ee063c"><path d="M13.681640625,20L11.46484375,21.484375L11.46484375,18.515625L13.681640625,20M19.115234375,16.3671875L19.115234375,12.240234375L12.181640625,16.861328125L15.267578125,18.931640625L19.115234375,16.3671875M27.83203125,16.861328125L20.8828125,12.240234375L20.8828125,16.3671875L24.732421875,18.931640625L27.83203125,16.861328125M12.181640625,23.138671875L19.115234375,27.759765625L19.115234375,23.6328125L15.267578125,21.068359375L12.181640625,23.138671875M20.8828125,23.6328125L20.8828125,27.759765625L27.83203125,23.138671875L24.732421875,21.068359375L20.8828125,23.6328125M20,17.904296875L16.865234375,20L20,22.095703125L23.130859375,20L20,17.904296875M36.666015625,20C36.666015625,29.166015625,29.166015625,36.666015625,20,36.666015625C10.833984375,36.666015625,3.333984375,29.166015625,3.333984375,20C3.333984375,10.833984375,10.833984375,3.333984375,20,3.333984375C29.166015625,3.333984375,36.666015625,10.833984375,36.666015625,20M30.298828125,16.861328125C30.298828125,16.822265625,30.298828125,16.783203125,30.298828125,16.744140625L30.283203125,16.666015625L30.283203125,16.666015625L30.267578125,16.587890625C30.248046875,16.5625,30.248046875,16.548828125,30.23046875,16.509765625L30.21484375,16.484375L30.181640625,16.419921875L30.166015625,16.380859375L30.1328125,16.328125L30.09765625,16.2890625L30.048828125,16.236328125L30,16.197265625L30,16.171875L29.931640625,16.1328125L29.916015625,16.119140625L20.498046875,9.84375C20.19921875,9.6484375,19.814453125,9.6484375,19.515625,9.84375L10.08203125,16.119140625L10.08203125,16.1328125L10,16.171875C10,16.185546875,10,16.197265625,10,16.197265625L9.947265625,16.236328125L9.8984375,16.2890625L9.8828125,16.328125L9.830078125,16.380859375L9.814453125,16.419921875L9.78125,16.484375L9.765625,16.509765625L9.732421875,16.587890625L9.732421875,16.666015625L9.716796875,16.666015625L9.701171875,16.744140625C9.701171875,16.783203125,9.701171875,16.822265625,9.701171875,16.861328125L9.701171875,23.138671875C9.701171875,23.177734375,9.701171875,23.216796875,9.701171875,23.255859375L9.716796875,23.333984375L9.732421875,23.333984375L9.732421875,23.412109375C9.75,23.4375,9.75,23.451171875,9.765625,23.490234375L9.78125,23.515625L9.814453125,23.580078125L9.830078125,23.619140625L9.8671875,23.671875L9.8984375,23.7109375C9.916015625,23.736328125,9.931640625,23.75,9.947265625,23.763671875L10,23.802734375L10,23.828125L10.064453125,23.8671875L10.08203125,23.880859375L19.515625,30.169921875C19.6484375,30.259765625,19.830078125,30.298828125,20,30.298828125C20.166015625,30.298828125,20.34765625,30.248046875,20.498046875,30.169921875L29.916015625,23.880859375L29.931640625,23.8671875L30,23.828125L30,23.802734375L30.048828125,23.763671875L30.09765625,23.7109375L30.1328125,23.671875L30.166015625,23.619140625L30.181640625,23.580078125L30.21484375,23.515625L30.23046875,23.490234375L30.267578125,23.412109375L30.267578125,23.333984375L30.283203125,23.333984375L30.298828125,23.255859375C30.298828125,23.216796875,30.298828125,23.177734375,30.298828125,23.138671875L30.298828125,16.861328125M28.53125,21.484375L28.53125,18.515625L26.314453125,20L28.53125,21.484375Z" style="fill: #fafaf9; fill-opacity: 1;"/></g></g></g></g></g></g></g></g></g></svg>