<svg width="24" xmlns="http://www.w3.org/2000/svg" height="24" id="screenshot-6296315c-e4ba-803c-8007-813704d8ab66" viewBox="0 0 24 24" xmlns:xlink="http://www.w3.org/1999/xlink" fill="none" version="1.1"><g id="shape-6296315c-e4ba-803c-8007-813704d8ab66"><g class="frame-container-wrapper"><g class="frame-container-blur"><g class="frame-container-shadows"><g fill="none"><g class="fills" id="fills-6296315c-e4ba-803c-8007-813704d8ab66"><rect rx="0" ry="0" x="0" y="0" width="24" height="24" transform="matrix(1.000000, 0.000000, 0.000000, 1.000000, 0.000000, 0.000000)" class="frame-background"/></g><g class="frame-children"><g id="shape-6296315c-e4ba-803c-8007-813704d8ab67" rx="0" ry="0" style="fill: #050b1a;"><g id="shape-6296315c-e4ba-803c-8007-813704d8ab68" style="display: none;"><g class="fills" id="fills-6296315c-e4ba-803c-8007-813704d8ab68"><rect width="24" height="24" x="0" transform="matrix(1.000000, 0.000000, 0.000000, 1.000000, 0.000000, 0.000000)" style="fill: none;" ry="0" fill="none" rx="0" y="0"/></g></g><g id="shape-6296315c-e4ba-803c-8007-813704d8ab69"><g class="fills" id="fills-6296315c-e4ba-803c-8007-813704d8ab69"><path d="M20,2L4,2L4,4L9.810546875,8.359375C6.140625,9.5703125,4.140625,13.52734375,5.3515625,17.19921875C6.560546875,20.8671875,10.5,22.8671875,14.19140625,21.66015625C17.861328125,20.44921875,19.861328125,16.5,18.650390625,12.8203125C17.951171875,10.70703125,16.30078125,9.046875,14.19140625,8.359375L20,4L20,2M14.94140625,19.5L12,17.77734375L9.060546875,19.5L9.83984375,16.16796875L7.25,13.9296875L10.66015625,13.63671875L12,10.5L13.33984375,13.63671875L16.75,13.9296875L14.16015625,16.16796875L14.94140625,19.5Z" style="fill: #050b1a; fill-opacity: 1;"/></g></g></g></g></g></g></g></g></g></svg>