<?xml version="1.0" encoding="UTF-8" standalone="no"?><!DOCTYPE svg PUBLIC "-//W3C//DTD SVG 1.1//EN" "http://www.w3.org/Graphics/SVG/1.1/DTD/svg11.dtd"><svg width="100" height="50" viewBox="0 0 240 120" version="1.1" xmlns="http://www.w3.org/2000/svg" xmlns:xlink="http://www.w3.org/1999/xlink" xml:space="preserve" xmlns:serif="http://www.serif.com/" style="fill-rule:evenodd;clip-rule:evenodd;stroke-linejoin:round;stroke-miterlimit:2;"><rect id="Full-Logo-Light" x="0" y="0" width="240" height="120" style="fill:none;"/><rect id="Full-Logo-Dark" x="-0" y="0" width="240" height="120" style="fill:none;"/><g><path d="M62.846,27.035l8.499,0l-30.226,64.72l-8.499,0l30.226,-64.72Z" style="fill:#f97316;"/><path d="M41.582,27.035l8.499,0l-30.226,64.72l-8.499,0l30.226,-64.72Z" style="fill:#f97316;"/><g><path d="M83.463,27.035l14.653,0l7.41,28.373l7.368,-28.373l14.736,0l0,64.673l-10.573,0l0,-51.808l-6.577,28.286l-9.782,0l-6.66,-28.286l0,51.808l-10.573,0l0,-64.673l-0.002,0Z" style="fill:#fafaf9;"/><path d="M134.042,88.503l0,-14.815c2.387,2.541 4.933,4.476 7.639,5.805c2.706,1.328 5.432,1.993 8.18,1.993c3.219,0 5.578,-0.837 7.077,-2.512c1.499,-1.675 2.248,-4.346 2.248,-8.014l0,-32.661l-15.027,0l0,-11.263l27.307,0l0,43.924c0,7.884 -1.589,13.522 -4.766,16.916c-3.178,3.393 -8.416,5.09 -15.714,5.09c-2.636,0 -5.391,-0.375 -8.263,-1.126c-2.872,-0.751 -5.765,-1.863 -8.679,-3.335l-0.002,-0.002Z" style="fill:#fafaf9;"/><path d="M177.98,27.035l14.653,0l7.41,28.373l7.368,-28.373l14.736,0l0,64.673l-10.573,0l0,-51.808l-6.577,28.286l-9.782,0l-6.66,-28.286l0,51.808l-10.573,0l0,-64.673l-0.002,0Z" style="fill:#fafaf9;"/></g></g></svg> 